<?xml version="1.0" encoding="UTF-8"?>
<svg width="38px" height="50px" viewBox="0 0 38 50" version="1.1" xmlns="http://www.w3.org/2000/svg" xmlns:xlink="http://www.w3.org/1999/xlink">
    <title>Group Copy 2</title>
    <g id="Symbols" stroke="none" stroke-width="1" fill="none" fill-rule="evenodd">
        <g id="Desktop-/-Footer" transform="translate(-105.000000, -61.000000)" fill="#444444" fill-rule="nonzero">
            <g id="Group-Copy-2" transform="translate(105.000000, 61.000000)">
                <path d="M9.32502653,25 C11.0928531,25 12.632723,25.3736174 13.9446364,26.1208522 C15.2565498,26.868087 16.2660718,27.9433761 16.9732024,29.3467195 C17.680333,30.7500628 18.0338983,32.399447 18.0338983,34.2948718 C18.0338983,36.1902966 17.680333,37.8396807 16.9732024,39.2430241 C16.2660718,40.6463675 15.2565498,41.7216566 13.9446364,42.4688914 C12.632723,43.2161262 11.0928531,43.5897436 9.32502653,43.5897436 C7.55719999,43.5897436 6.02198221,43.2161262 4.71937318,42.4688914 C3.41676415,41.7216566 2.41189433,40.6463675 1.70476372,39.2430241 C0.997633104,37.8396807 0.644067797,36.1902966 0.644067797,34.2948718 C0.644067797,32.399447 0.997633104,30.7500628 1.70476372,29.3467195 C2.41189433,27.9433761 3.41676415,26.868087 4.71937318,26.1208522 C6.02198221,25.3736174 7.55719999,25 9.32502653,25 Z M9.38185444,27.5450244 C7.65104686,27.5450244 6.29245597,28.1371163 5.30608175,29.3213 C4.31970754,30.5054838 3.82652044,32.163341 3.82652044,34.2948718 C3.82652044,36.4264025 4.31970754,38.0842598 5.30608175,39.2684435 C6.29245597,40.4526273 7.65104686,41.0447192 9.38185444,41.0447192 C11.1312728,41.0447192 12.4991692,40.4526273 13.4855434,39.2684435 C14.4719176,38.0842598 14.9651047,36.4264025 14.9651047,34.2948718 C14.9651047,32.163341 14.4719176,30.5054838 13.4855434,29.3213 C12.4991692,28.1371163 11.1312728,27.5450244 9.38185444,27.5450244 Z" id="Combined-Shape"></path>
                <path d="M30.8775757,50 C32.2858117,50 33.5270453,49.7858534 34.6012766,49.3575603 C35.6755079,48.9292672 36.5105196,48.3141654 37.1063118,47.5122549 C37.7021039,46.7103444 38,45.7808572 38,44.7237934 C38,43.7396305 37.7833483,42.9149384 37.3500449,42.2497172 C36.9167415,41.584496 36.2261643,41.0286262 35.2783131,40.5821078 C34.330462,40.1355895 33.0531197,39.7665284 31.4462864,39.4749246 C29.7311272,39.1650955 28.5395429,38.7960344 27.8715335,38.3677413 C27.2035241,37.9394482 26.8695194,37.3607969 26.8695194,36.6317873 C26.8695194,35.8481021 27.2125513,35.2056624 27.8986149,34.7044683 C28.5846786,34.2032743 29.5505841,33.9526772 30.7963313,33.9526772 C32.0601328,33.9526772 33.071174,34.1987179 33.829455,34.6907994 C34.5877359,35.1828808 35.2196366,35.9756787 35.7251573,37.0691931 L35.7251573,37.0691931 L37.9187556,35.0735294 C37.1243661,33.8342132 36.1449199,32.9138386 34.9804171,32.3124057 C33.8159142,31.7109729 32.4121918,31.4102564 30.7692498,31.4102564 C29.3610139,31.4102564 28.1288074,31.6562971 27.0726304,32.1483786 C26.0164534,32.64046 25.2085231,33.3056812 24.6488396,34.1440422 C24.0891561,34.9824032 23.8093143,35.9118904 23.8093143,36.9325038 C23.8093143,37.8984414 24.0304796,38.7185772 24.4728101,39.392911 C24.9151406,40.0672448 25.6237722,40.6322272 26.5987048,41.0878582 C27.5736374,41.5434892 28.8825747,41.9262192 30.5255167,42.2360483 C32.1684587,42.5458773 33.3194208,42.9012695 33.978403,43.3022247 C34.6373852,43.70318 34.9668763,44.2317119 34.9668763,44.8878205 C34.9668763,45.7079563 34.6012766,46.3412833 33.8700772,46.7878017 C33.1388777,47.23432 32.1323501,47.4575792 30.8504942,47.4575792 C29.4964212,47.4575792 28.3635134,47.2024258 27.4517708,46.6921192 C26.5400283,46.1818125 25.7952881,45.379902 25.2175503,44.2863876 L25.2175503,44.2863876 L23.1864407,46.336727 C24.6849482,48.778909 27.2486599,50 30.8775757,50 Z" id="Path"></path>
                <polygon id="Path" points="2.73943503 17.3076923 2.73943503 7.29020979 2.51806654 2.51748252 2.5457376 2.51748252 8.10762084 17.3076923 10.5703453 17.3076923 16.1322285 2.51748252 16.1598996 2.51748252 15.9662021 7.29020979 15.9662021 17.3076923 18.6779661 17.3076923 18.6779661 0 14.3612806 0 10.7087006 10.0174825 9.4081607 14.1346154 9.35281858 14.1346154 8.07994978 10.0174825 4.39969868 0 0 0 0 17.3076923"></polygon>
                <polygon id="Path" points="31.559322 25 31.559322 7.05128205 28.9830508 7.05128205 28.9830508 25"></polygon>
            </g>
        </g>
    </g>
</svg>